<svg version="1.1" xmlns="http://www.w3.org/2000/svg" style="display: block;" viewBox="0 0 2048 2048" width="2000" height="2000" preserveAspectRatio="none">
<path transform="translate(0,0)" fill="rgb(255,0,0)" d="M 943.497 934.06 C 952.266 946.179 960.902 958.561 970.566 969.987 C 992.178 995.54 1014.91 1010.33 1048.56 1013.26 C 1048.48 1006.57 1048.5 1000.08 1049.28 993.426 C 1054.86 996.871 1061.56 998.028 1067.97 996.655 C 1068.53 1001.99 1068.82 1007.39 1069.22 1012.74 C 1081.54 1011.02 1093.63 1008.88 1105.37 1004.63 C 1138.77 992.561 1160.9 969.451 1175.62 937.633 C 1175.09 964.849 1168.62 987.189 1152.16 1009.27 C 1132.91 1035.1 1103.11 1053.97 1071.06 1058.55 L 1071.86 1076.02 C 1086.57 1075.64 1101.25 1077.39 1115.46 1081.22 C 1153.06 1091.72 1184.92 1116.81 1203.95 1150.9 C 1220.07 1179.25 1225.72 1211.64 1223.76 1243.96 C 1221.94 1274.12 1212.47 1303.39 1198.42 1330.01 C 1138.49 1443.57 1003.69 1500.59 969.352 1629.32 C 957.218 1674.81 959.745 1722.57 983.795 1763.8 C 1005.04 1800.77 1040.15 1827.73 1081.35 1838.7 C 1123.97 1849.77 1169.24 1843.35 1207.09 1820.85 C 1245.78 1797.35 1273.58 1759.48 1284.41 1715.53 C 1294.23 1676.66 1292.28 1634.14 1274.33 1597.88 C 1270.55 1590.25 1265.5 1584.07 1261.17 1576.86 L 1261.91 1576.47 C 1264.05 1577.98 1265.49 1579.65 1267.04 1581.74 C 1295.47 1620.23 1303.33 1667.1 1296.04 1713.79 C 1288.09 1763.1 1260.79 1807.19 1220.2 1836.28 C 1180.59 1864.86 1129.44 1875.61 1081.44 1867.6 C 1031.39 1858.93 986.918 1830.53 958.004 1788.77 C 931.87 1751.74 920.285 1707.72 922.12 1662.6 C 923.277 1634.16 929.705 1606.48 939.946 1579.98 C 955.439 1539.88 979.476 1504.71 1007.61 1472.5 C 1065.16 1406.64 1152.98 1345 1168.59 1253.49 C 1174.05 1221.48 1168.95 1188.19 1149.67 1161.55 C 1130.82 1135.49 1104.54 1123.62 1073.52 1118.73 L 1074.92 1164.33 C 1087.57 1161.53 1109.81 1154.32 1122.05 1155.89 C 1125.92 1156.39 1129.06 1158.54 1131.39 1161.62 C 1140.64 1173.84 1141.87 1194.76 1139.42 1209.41 C 1137.93 1218.3 1135.18 1232.11 1127.17 1237.35 C 1118.39 1243.09 1087.09 1233.6 1076.43 1231.05 C 1077.67 1265.33 1078.42 1301.9 1073.87 1335.91 C 1066.14 1311.04 1062.58 1255.14 1061.6 1228.71 C 1047.37 1231.73 1015.88 1240.7 1003.19 1239.17 C 999.243 1238.69 996.617 1236.65 994.291 1233.54 C 985.013 1221.15 983.392 1198.59 985.838 1183.74 C 987.278 1174.99 990.021 1163.21 997.772 1157.99 C 1006.72 1151.97 1045.72 1163.29 1057.11 1165.68 C 1055.93 1150.26 1055.11 1134.82 1054.66 1119.37 C 1026.45 1123.01 1000.76 1136.7 983.226 1159.27 C 965.5 1182.09 956.311 1215.28 959.831 1243.96 C 982.682 1269.31 996.651 1301.42 999.621 1335.42 C 1003.4 1378.51 989.432 1421.27 960.943 1453.81 C 933.102 1486.11 893.517 1505.94 850.982 1508.91 C 814.637 1511.55 778.491 1501.6 748.612 1480.74 C 687.062 1438.08 662.4 1365.51 643.634 1296.51 C 633.623 1259.7 624.631 1222.42 607.799 1187.98 C 600.185 1172.4 591.032 1156.44 577.717 1145 C 567.011 1135.81 554.025 1130.42 539.708 1131.9 C 531.041 1132.8 521.497 1137.12 516.192 1144.25 C 511.241 1150.91 510.001 1161.07 511.229 1169.06 C 514.237 1188.65 528.387 1208.72 544.22 1220.2 C 558.768 1230.76 576.364 1235.88 594.24 1232.9 C 596.46 1232.53 598.454 1232.27 600.704 1232.24 L 600.023 1232.97 C 586.674 1237.82 571.141 1237.12 557.619 1233.16 C 534.968 1226.52 516.503 1209.18 505.426 1188.69 C 498.106 1175.16 494.189 1159.32 499.103 1144.2 C 502.789 1132.87 512.814 1122.25 523.543 1117.16 C 539.067 1109.8 557.2 1110.57 572.96 1116.69 C 644.169 1144.35 671.793 1279.47 700.559 1344.7 C 719.671 1388.04 748.248 1433.02 794.525 1450.62 C 822.716 1461.44 854.069 1460.5 881.563 1448.01 C 910.136 1434.98 932.241 1410.97 942.869 1381.42 C 954.724 1349.43 952.198 1313.79 937.889 1283.03 C 916.588 1237.24 875.582 1210.16 829.484 1193.19 C 842.219 1191.27 854.397 1191.96 867.132 1193.5 C 881.242 1181.62 893.252 1166.13 900.683 1149.21 C 911.162 1125.35 912.554 1097.24 902.983 1072.83 C 894.604 1051.35 877.893 1034.18 856.652 1025.21 C 833.521 1015.33 807.588 1016.05 784.452 1025.51 C 757.478 1036.54 737.313 1057.8 726.094 1084.58 C 712.675 1116.61 713.472 1150.59 726.484 1182.46 C 720.606 1175.6 716.236 1165.16 713.409 1156.66 C 702.4 1123.57 705.958 1085.37 721.876 1054.45 C 736.713 1024.98 762.898 1002.8 794.416 993.023 C 824.335 983.572 856.786 986.427 884.595 1000.96 C 911.939 1015.41 932.372 1040.19 941.346 1069.79 C 949.332 1096.57 946.828 1126.58 933.184 1151.11 C 921.318 1172.46 901.684 1188.88 878.15 1195.61 C 907.671 1202.5 934.595 1217.72 955.73 1239.45 C 954.82 1236.8 954.004 1234.12 953.284 1231.42 C 944.828 1200.33 949.272 1167.14 965.609 1139.38 C 985.078 1106.28 1015.68 1087.78 1052.14 1078.54 C 1051.73 1072.44 1051.62 1066.32 1051.44 1060.21 C 1030.43 1060.75 1009.64 1055.92 991.009 1046.18 C 967.223 1033.75 947.262 1013.98 939.267 987.885 C 933.645 969.535 934.586 951.11 943.497 934.06 z"/>
<path transform="translate(0,0)" fill="rgb(255,0,0)" d="M 1003.95 703.9 C 1011.75 665.416 1018.39 626.629 1025.59 588.024 L 1059.04 408.147 C 1062.17 437.984 1070.7 473.592 1076.35 503.893 L 1113.47 703.965 C 1100.92 721.381 1088.5 738.884 1076.19 756.473 C 1078.16 757.728 1080.07 759.035 1081.86 760.542 C 1089.35 766.842 1094.44 775.333 1095.22 785.209 C 1096.11 796.531 1091.58 805.142 1084.64 813.573 C 1086.61 816.788 1088.61 820.413 1091.39 823.002 C 1097.15 828.372 1104.96 831.957 1112.92 831.644 C 1121.66 831.3 1129.95 826.38 1135.77 820.056 C 1148.14 806.598 1148.83 790.592 1147.9 773.419 C 1154.72 777.144 1160.67 781.63 1165.33 787.925 C 1175.09 801.091 1174.72 815.17 1172.21 830.476 C 1216.34 731.909 1144.53 685.059 1165.75 607.832 C 1174.17 577.185 1194.39 553.429 1221.74 537.876 C 1216.33 549.832 1212.46 563.516 1209.69 576.284 C 1199.4 623.784 1208.11 664.744 1224.94 709.322 C 1234.54 734.752 1244.91 760.783 1245.94 788.28 C 1247.78 837.79 1213.07 881.812 1167.12 897.782 C 1148.57 904.227 1120.84 900.955 1106.85 916.987 C 1102.24 922.284 1100.52 929.151 1101.09 936.087 C 1101.83 945.16 1107.51 950.496 1113.97 956.1 C 1099.26 950.441 1088.35 943.08 1078.3 930.896 C 1075.58 936.454 1072 941.794 1068.8 947.105 C 1063.6 945.809 1058.13 946.186 1053.16 948.181 C 1050.76 943.263 1047.59 938.544 1044.76 933.85 C 1033.77 944.847 1024.11 950.688 1009.81 956.883 C 1014.6 953.218 1019.29 949.607 1021.96 944.016 C 1024.81 938.051 1024.77 929.524 1022.36 923.427 C 1013.21 900.237 972.34 903.819 952.368 895.64 C 930.661 886.746 911.992 871.762 898.61 852.495 C 851.112 784.744 905.868 720.755 917.383 652.221 C 923.725 613.634 918.922 574.039 903.538 538.087 C 922.844 548.841 938.926 564.15 949.718 583.525 C 985.394 647.578 939.823 699.501 938.126 763.832 C 937.491 787.897 944.122 808.952 953.246 830.875 C 951.481 821.673 950.37 813.099 952.54 803.807 C 955.863 789.571 965.085 780.579 977.174 773.327 C 976.836 782.4 976.585 791.1 978.771 799.995 C 981.373 810.58 987.48 821.153 997.125 826.734 C 1006.84 832.354 1016.45 831.318 1026.7 828.33 L 1036.16 813.832 C 1034.77 812.407 1033.5 810.997 1032.33 809.386 C 1026.5 801.405 1023.89 792.046 1025.58 782.221 C 1027.45 771.394 1033.67 763.723 1042.45 757.542 C 1029.26 739.974 1016.82 721.712 1003.95 703.9 z"/>
<path transform="translate(0,0)" fill="rgb(255,0,0)" d="M 1434 389.026 L 1434.4 389.381 C 1433.98 390.912 1326.11 479.561 1316.81 485.544 L 1315.19 484.693 L 1309.32 477.192 C 1350.51 447.306 1392.62 418.654 1434 389.026 z"/>
<path transform="translate(0,0)" fill="rgb(255,0,0)" d="M 1439.82 445.985 L 1440.16 446.218 L 1440.26 447.209 C 1417.06 462.08 1394.16 477.458 1371.14 492.609 C 1360.4 499.674 1349.73 507.366 1338.6 513.777 C 1336.68 514.883 1336.99 515.209 1334.79 514.614 L 1329.62 505.932 C 1366.66 486.667 1403.25 466.16 1439.82 445.985 z"/>
<path transform="translate(0,0)" fill="rgb(255,0,0)" d="M 1516.57 523.065 L 1517.78 523.54 C 1501.06 530.33 1483.8 536.071 1466.87 542.325 L 1363.83 580.718 L 1360.3 569.81 C 1411.79 552.711 1464.73 539.262 1516.57 523.065 z"/>
<path transform="translate(0,0)" fill="rgb(255,0,0)" d="M 1473.72 586.306 L 1477.57 586.064 C 1473.31 589.317 1389.28 610.326 1376.24 613.841 C 1375.27 614.012 1374.1 613.908 1373.11 613.91 C 1371.08 611.166 1370.83 606.895 1370.24 603.553 C 1404.79 598.104 1439.28 592.355 1473.72 586.306 z"/>
<path transform="translate(0,0)" fill="rgb(255,0,0)" d="M 733.26 744.226 L 733.802 744.335 C 735.966 747.359 736.11 751.821 736.743 755.474 C 686.417 762.743 635.331 774.218 585.25 783.677 L 582.348 783.847 C 587.318 780.707 717.835 748.224 733.26 744.226 z"/>
<path transform="translate(0,0)" fill="rgb(255,0,0)" d="M 742.801 778.314 C 745.018 781.416 745.864 785.455 747.035 789.073 C 699.971 802.471 652.946 816.904 606.294 831.656 L 603.874 832.017 C 605.038 830.036 727.597 784.086 742.801 778.314 z"/>
<path transform="translate(0,0)" fill="rgb(255,0,0)" d="M 1372.13 743.884 C 1416.21 756.624 1461.06 767.738 1505.53 779.038 L 1506.06 780.249 C 1460.57 771.909 1415.15 762.72 1369.51 755.296 L 1372.13 743.884 z"/>
<path transform="translate(0,0)" fill="rgb(255,0,0)" d="M 593.086 579.082 C 607.193 578.658 626.299 584.086 640.521 586.597 C 672.008 592.156 703.614 597.35 734.992 603.49 C 736.255 606.481 734.885 610.205 734.203 613.261 C 733.648 613.55 733.143 613.966 732.538 614.126 C 729.866 614.832 606.729 582.494 593.086 579.082 z"/>
<path transform="translate(0,0)" fill="rgb(255,0,0)" d="M 1510.13 629.395 C 1513.48 629.011 1516.22 629.039 1519.57 629.506 C 1474.73 635.2 1430.02 642.33 1385.24 648.577 C 1382.78 649.054 1381.14 649.326 1378.62 648.901 C 1376.27 646.265 1376.58 641.59 1376.31 638.193 C 1391.51 637.838 1406.83 636.329 1422 635.337 L 1510.13 629.395 z"/>
<path transform="translate(0,0)" fill="rgb(255,0,0)" d="M 1377.33 708.964 L 1458.85 721.809 C 1470.76 723.668 1485.06 724.44 1496.4 728.181 C 1456.38 727.56 1415.93 722.851 1375.92 720.484 C 1376.58 716.674 1376.91 712.807 1377.33 708.964 z"/>
<path transform="translate(0,0)" fill="rgb(255,0,0)" d="M 1461.39 489.917 L 1462.64 490.528 C 1425.4 509.079 1388.21 528.193 1351.44 547.65 L 1346.74 536.921 C 1384.97 521.382 1423.61 506.526 1461.39 489.917 z"/>
<path transform="translate(0,0)" fill="rgb(255,0,0)" d="M 604.172 631.337 C 616.699 630.235 630.864 632.307 643.494 633.086 C 672.295 634.862 701.206 637.302 730.041 638.177 C 729.849 641.917 729.176 645.742 728.729 649.468 C 718.483 649.955 702.755 645.923 692.191 644.327 C 662.889 639.746 633.548 635.415 604.172 631.337 z"/>
<path transform="translate(0,0)" fill="rgb(255,0,0)" d="M 1125.66 234.741 C 1127.12 245.492 1122.77 265.917 1121.4 277.299 C 1118.23 303.684 1115.6 330.351 1111.73 356.627 C 1109.88 357.966 1104.77 356.659 1102.34 356.356 C 1101.49 355.988 1102.09 356.296 1100.84 355.028 C 1107.91 314.746 1117.79 274.889 1125.66 234.741 z"/>
<path transform="translate(0,0)" fill="rgb(255,0,0)" d="M 1378.92 673.862 C 1417.13 674.107 1455.67 677.986 1493.89 679.427 L 1492.25 679.84 C 1454.59 682.979 1416.42 683.239 1378.66 685.231 C 1378.85 681.455 1378.84 677.644 1378.92 673.862 z"/>
<path transform="translate(0,0)" fill="rgb(255,0,0)" d="M 1053.16 948.181 C 1058.13 946.186 1063.6 945.809 1068.8 947.105 C 1080.28 949.969 1088.27 960.376 1088.08 972.21 C 1087.88 984.044 1079.54 994.177 1067.97 996.655 C 1061.56 998.028 1054.86 996.871 1049.28 993.426 C 1041.11 988.384 1036.48 979.173 1037.3 969.61 C 1038.12 960.046 1044.26 951.759 1053.16 948.181 z"/>
<path transform="translate(0,0)" fill="rgb(255,0,0)" d="M 1370.89 375.325 C 1376.71 370.807 1397.9 349.017 1402.94 348.529 C 1399.5 354.024 1393 358.95 1388.59 363.913 L 1384.53 367.845 C 1380.56 371.738 1376.45 375.544 1372.84 379.778 C 1364.55 385.565 1356.31 395.974 1349.14 403.205 L 1294.07 458.918 L 1285.98 450.592 C 1314.26 425.52 1343.15 401 1370.89 375.325 z"/>
<path transform="translate(0,0)" fill="rgb(255,0,0)" d="M 1334.3 842.507 C 1348.97 852.086 1462.41 925.121 1464.67 929.062 L 1462.55 928.319 C 1418.18 902.422 1373.07 877.634 1328.32 852.395 L 1334.3 842.507 z"/>
<path transform="translate(0,0)" fill="rgb(255,0,0)" d="M 1314.83 871.913 C 1328.98 883.611 1432.2 966.683 1434.56 971.899 L 1432.54 970.68 L 1307.88 881.031 L 1314.83 871.913 z"/>
<path transform="translate(0,0)" fill="rgb(255,0,0)" d="M 1230.82 231.895 C 1230.57 236.54 1228.85 240.641 1227.29 244.976 C 1209.59 288.425 1195.78 333.831 1179.27 377.808 L 1168.73 373.569 C 1189.67 326.453 1210.37 279.228 1230.82 231.895 z"/>
<path transform="translate(0,0)" fill="rgb(255,0,0)" d="M 1350.35 811.134 C 1368.82 818.725 1387.21 829.855 1405.04 839.047 C 1431.18 852.525 1458.01 865.276 1483.75 879.458 L 1482.55 880.029 C 1437.39 859.691 1391.35 840.864 1345.68 821.679 L 1350.35 811.134 z"/>
<path transform="translate(0,0)" fill="rgb(255,0,0)" d="M 676.731 393.69 C 685.35 396.434 781.539 465.635 795.933 476.465 C 796.365 478.885 795.048 479.832 793.747 481.814 C 792.164 483.827 791.852 484.618 789.469 485.441 C 775.964 475.885 763.293 464.364 750.463 453.882 L 676.731 393.69 z"/>
<path transform="translate(0,0)" fill="rgb(255,0,0)" d="M 788.241 289.634 C 791.801 292.04 871.256 398.312 874.186 405.424 L 872.498 407.227 C 870.145 408.865 867.711 410.387 865.3 411.937 L 788.241 289.634 z"/>
<path transform="translate(0,0)" fill="rgb(255,0,0)" d="M 927.012 377.823 C 921.737 361.22 878.491 246.689 879.483 241.895 C 882.769 247.981 885.256 254.767 888.122 261.091 C 896.153 279.688 904.344 298.215 912.694 316.671 C 921.201 335.593 929.505 354.606 937.605 373.707 L 927.012 377.823 z"/>
<path transform="translate(0,0)" fill="rgb(255,0,0)" d="M 1261.92 282.997 C 1265.59 276.588 1269.09 269.875 1273.5 263.95 C 1268.48 277.357 1251.46 304.831 1249.28 315.637 C 1239.83 333.241 1231.42 351.5 1222.84 369.546 L 1211.2 393.358 L 1201.05 387.839 C 1203.3 383.898 1205.71 379.984 1207.75 375.936 C 1214.26 367.118 1219.51 356.085 1225.03 346.574 L 1261.92 282.997 z"/>
<path transform="translate(0,0)" fill="rgb(255,0,0)" d="M 648.963 866.37 L 755.927 811.047 L 760.938 821.533 L 675.144 857.733 C 661.176 863.632 646.773 870.904 632.377 875.532 C 635.357 872.738 639.993 870.927 643.62 869.031 L 648.963 866.37 z"/>
<path transform="translate(0,0)" fill="rgb(255,0,0)" d="M 1307.14 375.213 C 1311.35 372.256 1315.29 366.961 1318.86 363.095 C 1329.68 351.382 1340.07 338.879 1351.68 327.96 C 1343.78 342.404 1329.41 357.436 1319.04 370.451 L 1268.82 434.133 L 1260.02 426.619 C 1275.73 409.649 1292.29 392.925 1307.14 375.213 z"/>
<path transform="translate(0,0)" fill="rgb(255,0,0)" d="M 1077.15 221.566 C 1077.96 218.548 1078.06 215.354 1078.34 212.243 L 1078.83 215.419 C 1078.47 228.879 1077.99 242.341 1078.16 255.808 C 1078.07 260.115 1077.79 264.495 1078.11 268.79 C 1077.59 285.23 1077.26 301.675 1077.12 318.123 C 1077.13 323.464 1076.99 328.845 1077.25 334.178 L 1077.19 335.676 C 1076.77 341.501 1076.86 347.454 1076.74 353.299 C 1073 353.101 1069.25 352.856 1065.52 352.563 C 1068.32 308.967 1075.84 265.164 1077.15 221.566 z"/>
<path transform="translate(0,0)" fill="rgb(255,0,0)" d="M 727.916 673.826 L 727.832 685.098 C 690.108 683.817 652.367 681.879 614.636 680.981 C 607.243 680.905 599.081 680.875 591.843 679.38 C 630.248 677.993 668.646 676.389 707.033 674.565 C 713.984 674.186 720.958 674.05 727.916 673.826 z"/>
<path transform="translate(0,0)" fill="rgb(255,0,0)" d="M 1298.79 315.101 C 1301.29 311.824 1303.77 307.777 1307.23 305.497 L 1305.28 307.544 L 1306.29 307.607 L 1241.13 412.172 L 1231.51 405.613 C 1239.29 395.21 1247.4 384.908 1254.71 374.168 C 1259.38 369.961 1263.69 362.612 1267.54 357.451 C 1278.06 343.414 1288.48 329.297 1298.79 315.101 z"/>
<path transform="translate(0,0)" fill="rgb(255,0,0)" d="M 1135.07 363.089 C 1147.18 324.199 1159.8 285.185 1173.19 246.711 C 1168.94 270.822 1162.47 294.874 1156.99 318.749 C 1153.43 334.278 1150.82 351.179 1145.99 366.301 C 1142.45 364.982 1138.71 364.104 1135.07 363.089 z"/>
<path transform="translate(0,0)" fill="rgb(255,0,0)" d="M 844.532 285.858 L 845.866 286.584 C 851.767 299.348 860.135 311.616 867.346 323.705 L 905.496 387.884 L 895.28 393.267 C 879.365 357.125 859.445 322.39 844.532 285.858 z"/>
<path transform="translate(0,0)" fill="rgb(255,0,0)" d="M 791.514 872.172 C 794.173 874.746 796.486 878.163 798.842 881.048 L 708.688 944.015 L 705.835 945.716 L 705.727 944.919 C 734.346 920.702 762.654 896.101 791.514 872.172 z"/>
<path transform="translate(0,0)" fill="rgb(255,0,0)" d="M 1029.33 231.92 C 1033.11 272.233 1037.11 312.524 1041.32 352.793 L 1030.03 353.22 C 1029.93 341.079 1030.15 328.837 1029.65 316.711 C 1028.96 288.625 1028.31 259.99 1029.33 231.92 z"/>
<path transform="translate(0,0)" fill="rgb(255,0,0)" d="M 677.573 453.83 C 684.817 455.154 769.326 501.151 775.564 505.918 C 775.8 508.712 773.699 511.288 772.332 513.616 L 771.077 515.202 C 767.022 514.687 687.532 460.419 677.573 453.83 z"/>
<path transform="translate(0,0)" fill="rgb(255,0,0)" d="M 1291.79 899.599 C 1292.27 899.854 1292.8 900.041 1293.25 900.363 C 1301.06 905.997 1364.36 975.405 1364.61 976.741 L 1362.32 975.467 C 1337.46 951.721 1309.93 930.356 1284.36 907.306 L 1291.79 899.599 z"/>
<path transform="translate(0,0)" fill="rgb(255,0,0)" d="M 726.862 709.402 L 728.447 709.375 C 730.32 712.7 730.076 716.883 730.282 720.618 C 711.583 721.111 692.826 722.646 674.151 723.749 C 657.407 724.737 640.427 725.207 623.777 727.237 L 621.413 726.495 C 656.643 721.35 691.677 714.861 726.862 709.402 z"/>
<path transform="translate(0,0)" fill="rgb(255,0,0)" d="M 691.029 514.256 C 684.73 510.576 670.761 505.078 666.454 500.39 C 673.767 502.074 681.021 505.837 687.987 508.667 C 705.061 515.605 737.553 530.192 753.864 534.268 C 755.624 535.02 756.898 535.65 758.327 536.933 C 758.708 540.927 756.674 543.95 755.06 547.556 C 733.967 536.414 712.817 523.875 691.029 514.256 z"/>
<path transform="translate(0,0)" fill="rgb(255,0,0)" d="M 960.227 365.574 C 957.984 353.028 939.45 277.05 940.104 272.598 C 942.406 274.903 943.236 278.78 944.313 281.862 C 953.219 309.031 962.316 336.138 971.603 363.179 C 967.867 364.021 964.026 365.138 960.227 365.574 z"/>
<path transform="translate(0,0)" fill="rgb(255,0,0)" d="M 745.708 388.639 C 746.914 389.019 747.904 389.466 748.926 390.222 C 755.62 395.18 818.445 447.762 819.187 449.659 C 819.406 450.217 819.35 450.847 819.431 451.44 L 816.44 455.119 L 812.696 458.522 C 805.345 453.418 798.56 444.194 792.253 437.539 L 745.708 388.639 z"/>
<path transform="translate(0,0)" fill="rgb(255,0,0)" d="M 813.832 899.578 C 817.22 901.377 819.635 904.655 822.154 907.486 C 799.396 927.18 776.53 946.749 753.558 966.193 C 752.311 967.294 750.988 968.265 749.662 969.267 C 753.491 961.436 803.698 910.355 813.832 899.578 z"/>
<path transform="translate(0,0)" fill="rgb(255,0,0)" d="M 990.329 318.96 C 989.063 298.877 985.622 278.966 984.079 258.942 L 985.023 258.493 C 989.709 291.179 999.488 323.758 1006.08 356.174 L 994.605 357.678 C 993.697 347.723 993.546 327.767 990.329 318.96 z"/>
<path transform="translate(0,0)" fill="rgb(255,0,0)" d="M 781.879 360.622 C 787.167 363.124 842.763 421.06 845.573 426.735 L 842.893 429.81 C 841.207 431.261 839.539 432.333 837.613 433.442 C 817.859 410.323 800.538 384.688 781.879 360.622 z"/>
<path transform="translate(0,0)" fill="rgb(255,0,0)" d="M 1362.92 778.169 C 1372.03 781.032 1381.09 785.421 1389.94 789.04 C 1409.73 797.259 1429.59 805.332 1449.51 813.258 L 1448.68 813.902 C 1419.12 805.067 1389.2 797.226 1359.47 788.959 C 1360.64 785.369 1361.79 781.772 1362.92 778.169 z"/>
<path transform="translate(0,0)" fill="rgb(255,0,0)" d="M 772.213 842.497 L 778.294 852.314 L 766.981 858.166 L 723.427 881.241 C 716.359 884.977 708.761 889.811 701.23 892.392 C 708.121 886.285 716.725 881.192 724.305 875.886 L 772.213 842.497 z"/>
<path transform="translate(0,0)" fill="rgb(255,0,0)" d="M 661.178 547.908 C 670.867 548.268 682.273 552.695 691.72 555.179 C 709.493 559.852 727.454 564.174 745.025 569.559 C 745.946 572.504 744.134 575.835 743.144 578.628 C 742.848 579.43 743.106 578.873 741.94 580.022 C 732.081 577.182 722.225 572.379 712.683 568.509 L 661.178 547.908 z"/>
<path transform="translate(0,0)" fill="rgb(255,0,0)" d="M 681.322 1212.71 C 687.823 1211.2 694.34 1215.16 695.992 1221.62 C 697.644 1228.09 693.825 1234.69 687.397 1236.48 C 683.111 1237.68 678.514 1236.46 675.382 1233.3 C 672.25 1230.14 671.074 1225.54 672.306 1221.26 C 673.539 1216.99 676.989 1213.71 681.322 1212.71 z"/>
<path transform="translate(0,0)" fill="rgb(255,0,0)" d="M 693.375 1252.61 C 699.787 1250.85 706.434 1254.52 708.357 1260.89 C 710.281 1267.25 706.78 1273.99 700.466 1276.07 C 696.237 1277.47 691.583 1276.46 688.311 1273.44 C 685.038 1270.42 683.66 1265.87 684.713 1261.54 C 685.765 1257.21 689.081 1253.79 693.375 1252.61 z"/>
<path transform="translate(0,0)" fill="rgb(255,0,0)" d="M 1163.57 1434.6 C 1167.93 1433.81 1172.38 1435.44 1175.2 1438.85 C 1178.03 1442.27 1178.78 1446.95 1177.18 1451.08 C 1175.58 1455.22 1171.88 1458.17 1167.49 1458.79 C 1160.87 1459.74 1154.72 1455.21 1153.65 1448.62 C 1152.59 1442.02 1157 1435.79 1163.57 1434.6 z"/>
<path transform="translate(0,0)" fill="rgb(255,0,0)" d="M 1131.56 1464.58 C 1135.65 1462.94 1140.31 1463.65 1143.73 1466.43 C 1147.15 1469.2 1148.8 1473.61 1148.05 1477.95 C 1147.29 1482.29 1144.25 1485.88 1140.09 1487.34 C 1133.85 1489.52 1127.01 1486.32 1124.69 1480.13 C 1122.37 1473.94 1125.43 1467.03 1131.56 1464.58 z"/>
<path transform="translate(0,0)" fill="rgb(255,0,0)" d="M 705.587 1292.68 C 711.843 1290.3 718.836 1293.47 721.183 1299.73 C 723.531 1306 720.338 1312.98 714.063 1315.3 C 707.824 1317.61 700.893 1314.44 698.56 1308.21 C 696.226 1301.98 699.368 1295.03 705.587 1292.68 z"/>
<path transform="translate(0,0)" fill="rgb(255,0,0)" d="M 1188.56 1404.53 C 1192.7 1402.7 1197.52 1403.35 1201.03 1406.21 C 1204.53 1409.07 1206.14 1413.66 1205.18 1418.08 C 1204.22 1422.51 1200.86 1426.02 1196.49 1427.17 C 1190.42 1428.77 1184.14 1425.44 1182.07 1419.51 C 1179.99 1413.59 1182.82 1407.07 1188.56 1404.53 z"/>
<path transform="translate(0,0)" fill="rgb(255,0,0)" d="M 664.395 1174.76 C 668.403 1172.95 673.081 1173.48 676.589 1176.13 C 680.096 1178.78 681.872 1183.14 681.218 1187.49 C 680.565 1191.84 677.585 1195.49 673.452 1196.99 C 667.384 1199.2 660.654 1196.22 658.217 1190.24 C 655.78 1184.26 658.509 1177.42 664.395 1174.76 z"/>
<path transform="translate(0,0)" fill="rgb(255,0,0)" d="M 1100.78 1493.67 C 1106.84 1490.93 1113.97 1493.66 1116.65 1499.75 C 1119.33 1505.83 1116.54 1512.94 1110.43 1515.56 C 1104.39 1518.16 1097.4 1515.4 1094.75 1509.4 C 1092.11 1503.39 1094.79 1496.37 1100.78 1493.67 z"/>
<path transform="translate(0,0)" fill="rgb(255,0,0)" d="M 1213.49 1370.58 C 1217.5 1369.05 1222.02 1369.8 1225.32 1372.55 C 1228.61 1375.31 1230.16 1379.63 1229.36 1383.85 C 1228.57 1388.07 1225.55 1391.52 1221.48 1392.88 C 1215.37 1394.93 1208.74 1391.71 1206.57 1385.64 C 1204.39 1379.58 1207.47 1372.88 1213.49 1370.58 z"/>
<path transform="translate(0,0)" fill="rgb(255,0,0)" d="M 1072.72 1522.62 C 1078.93 1520.72 1085.5 1524.22 1087.38 1530.44 C 1089.26 1536.65 1085.72 1543.21 1079.5 1545.06 C 1073.31 1546.91 1066.8 1543.4 1064.93 1537.22 C 1063.06 1531.03 1066.55 1524.5 1072.72 1522.62 z"/>
<path transform="translate(0,0)" fill="rgb(255,0,0)" d="M 721.415 1331.68 C 727.327 1329.21 734.125 1331.98 736.62 1337.88 C 739.115 1343.79 736.368 1350.59 730.476 1353.11 C 724.55 1355.65 717.694 1352.88 715.185 1346.94 C 712.676 1341.01 715.469 1334.16 721.415 1331.68 z"/>
<path transform="translate(0,0)" fill="rgb(255,0,0)" d="M 645.207 1138.6 C 651.202 1136.8 657.543 1140.1 659.503 1146.04 C 661.464 1151.99 658.329 1158.41 652.436 1160.53 C 648.486 1161.94 644.078 1161.11 640.923 1158.34 C 637.769 1155.57 636.364 1151.31 637.254 1147.21 C 638.144 1143.11 641.189 1139.81 645.207 1138.6 z"/>
<path transform="translate(0,0)" fill="rgb(255,0,0)" d="M 1233.18 1334.58 C 1236.99 1332.98 1241.37 1333.57 1244.62 1336.13 C 1247.87 1338.68 1249.48 1342.8 1248.82 1346.88 C 1248.16 1350.96 1245.34 1354.37 1241.46 1355.77 C 1235.65 1357.87 1229.23 1354.96 1226.99 1349.21 C 1224.75 1343.46 1227.49 1336.97 1233.18 1334.58 z"/>
<path transform="translate(0,0)" fill="rgb(255,0,0)" d="M 1045.06 1554.63 C 1050.74 1552.72 1056.91 1555.62 1059.05 1561.21 C 1061.19 1566.8 1058.54 1573.08 1053.05 1575.45 C 1049.29 1577.07 1044.94 1576.5 1041.73 1573.97 C 1038.51 1571.43 1036.94 1567.34 1037.64 1563.3 C 1038.34 1559.27 1041.19 1555.94 1045.06 1554.63 z"/>
<path transform="translate(0,0)" fill="rgb(255,0,0)" d="M 743.853 1367.66 C 749.655 1365.82 755.842 1369.05 757.659 1374.86 C 759.475 1380.67 756.231 1386.85 750.419 1388.65 C 744.629 1390.44 738.478 1387.21 736.668 1381.43 C 734.858 1375.64 738.072 1369.48 743.853 1367.66 z"/>
<path transform="translate(0,0)" fill="rgb(255,0,0)" d="M 1249.5 1295.62 C 1255.14 1294.05 1261.02 1297.23 1262.78 1302.81 C 1264.55 1308.4 1261.57 1314.38 1256.04 1316.33 C 1252.3 1317.66 1248.13 1316.83 1245.18 1314.19 C 1242.22 1311.54 1240.94 1307.49 1241.84 1303.63 C 1242.74 1299.76 1245.67 1296.69 1249.5 1295.62 z"/>
<path transform="translate(0,0)" fill="rgb(255,0,0)" d="M 617.861 1107.61 C 621.518 1106.12 625.696 1106.73 628.768 1109.21 C 631.839 1111.7 633.317 1115.65 632.627 1119.54 C 631.936 1123.43 629.186 1126.63 625.448 1127.91 C 619.897 1129.8 613.849 1126.93 611.797 1121.44 C 609.744 1115.95 612.431 1109.82 617.861 1107.61 z"/>
<path transform="translate(0,0)" fill="rgb(255,0,0)" d="M 1022.52 1589.61 C 1028.08 1588.09 1033.83 1591.3 1035.45 1596.83 C 1037.07 1602.36 1033.96 1608.17 1028.47 1609.9 C 1024.82 1611.04 1020.83 1610.13 1018.05 1607.5 C 1015.27 1604.88 1014.12 1600.96 1015.04 1597.24 C 1015.97 1593.53 1018.83 1590.61 1022.52 1589.61 z"/>
<path transform="translate(0,0)" fill="rgb(255,0,0)" d="M 1258.11 1255.67 C 1261.66 1254.58 1265.51 1255.5 1268.18 1258.08 C 1270.84 1260.66 1271.89 1264.48 1270.91 1268.06 C 1269.94 1271.64 1267.09 1274.4 1263.49 1275.27 C 1258.15 1276.56 1252.75 1273.37 1251.3 1268.07 C 1249.85 1262.78 1252.86 1257.28 1258.11 1255.67 z"/>
<path transform="translate(0,0)" fill="rgb(255,0,0)" d="M 774.595 1397.48 C 779.902 1396.3 785.184 1399.56 786.507 1404.84 C 787.829 1410.11 784.711 1415.48 779.475 1416.94 C 775.96 1417.92 772.19 1416.92 769.628 1414.32 C 767.067 1411.72 766.118 1407.94 767.15 1404.44 C 768.183 1400.94 771.034 1398.28 774.595 1397.48 z"/>
<path transform="translate(0,0)" fill="rgb(255,0,0)" d="M 583.67 1084.72 C 586.815 1083.01 590.641 1083.15 593.653 1085.09 C 596.665 1087.02 598.385 1090.44 598.14 1094.01 C 597.895 1097.58 595.725 1100.74 592.477 1102.24 C 587.672 1104.47 581.968 1102.48 579.589 1097.75 C 577.211 1093.02 579.017 1087.25 583.67 1084.72 z"/>
<path transform="translate(0,0)" fill="rgb(255,0,0)" d="M 1007.02 1628.63 C 1012.06 1627.48 1017.12 1630.47 1018.55 1635.43 C 1019.98 1640.4 1017.29 1645.63 1012.4 1647.34 C 1008.99 1648.53 1005.2 1647.74 1002.55 1645.28 C 999.9 1642.82 998.827 1639.1 999.764 1635.61 C 1000.7 1632.12 1003.49 1629.43 1007.02 1628.63 z"/>
<path transform="translate(0,0)" fill="rgb(255,0,0)" d="M 1261.16 1214.65 C 1266.05 1213.61 1270.88 1216.65 1272.04 1221.51 C 1273.2 1226.38 1270.28 1231.28 1265.44 1232.56 C 1262.21 1233.41 1258.77 1232.45 1256.45 1230.04 C 1254.14 1227.64 1253.3 1224.16 1254.28 1220.96 C 1255.26 1217.77 1257.89 1215.35 1261.16 1214.65 z"/>
<path transform="translate(0,0)" fill="rgb(255,0,0)" d="M 812.365 1414.61 C 816.982 1413.1 821.948 1415.6 823.494 1420.2 C 825.039 1424.81 822.586 1429.8 817.996 1431.38 C 813.349 1432.99 808.283 1430.5 806.718 1425.84 C 805.153 1421.17 807.689 1416.13 812.365 1414.61 z"/>
<path transform="translate(0,0)" fill="rgb(255,0,0)" d="M 806.95 1035.53 C 811.368 1033.5 816.591 1035.45 818.604 1039.88 C 820.616 1044.3 818.651 1049.52 814.22 1051.52 C 809.81 1053.5 804.621 1051.55 802.618 1047.15 C 800.615 1042.74 802.552 1037.55 806.95 1035.53 z"/>
<path transform="translate(0,0)" fill="rgb(255,0,0)" d="M 999.567 1671.68 C 1002.37 1670.16 1005.78 1670.28 1008.47 1672 C 1011.15 1673.72 1012.69 1676.77 1012.47 1679.95 C 1012.26 1683.14 1010.33 1685.95 1007.43 1687.29 C 1003.15 1689.28 998.062 1687.51 995.938 1683.3 C 993.815 1679.08 995.421 1673.94 999.567 1671.68 z"/>
<path transform="translate(0,0)" fill="rgb(255,0,0)" d="M 545.064 1075.5 C 549.42 1073.85 554.296 1075.97 556.057 1080.29 C 557.817 1084.6 555.821 1089.53 551.556 1091.4 C 548.697 1092.65 545.382 1092.26 542.898 1090.37 C 540.414 1088.48 539.152 1085.39 539.602 1082.3 C 540.052 1079.21 542.143 1076.6 545.064 1075.5 z"/>
<path transform="translate(0,0)" fill="rgb(255,0,0)" d="M 846.374 1046.66 C 850.633 1044.71 855.664 1046.58 857.622 1050.83 C 859.579 1055.09 857.725 1060.12 853.477 1062.09 C 849.212 1064.07 844.154 1062.2 842.189 1057.93 C 840.224 1053.67 842.1 1048.61 846.374 1046.66 z"/>
<path transform="translate(0,0)" fill="rgb(255,0,0)" d="M 1255.31 1174.67 C 1259.58 1173.27 1264.18 1175.59 1265.61 1179.86 C 1267.04 1184.12 1264.76 1188.74 1260.51 1190.2 C 1256.2 1191.68 1251.52 1189.37 1250.07 1185.06 C 1248.63 1180.74 1250.98 1176.07 1255.31 1174.67 z"/>
<path transform="translate(0,0)" fill="rgb(255,0,0)" d="M 770.53 1050.58 C 774.701 1049.52 778.941 1052.04 780.019 1056.2 C 781.097 1060.37 778.609 1064.62 774.45 1065.72 C 770.257 1066.83 765.962 1064.32 764.875 1060.12 C 763.788 1055.92 766.325 1051.64 770.53 1050.58 z"/>
<path transform="translate(0,0)" fill="rgb(255,0,0)" d="M 1007.15 1713.67 C 1009.6 1712.33 1012.6 1712.46 1014.93 1714.02 C 1017.25 1715.58 1018.52 1718.3 1018.21 1721.08 C 1017.9 1723.86 1016.07 1726.24 1013.46 1727.25 C 1009.78 1728.69 1005.61 1727.01 1003.94 1723.42 C 1002.27 1719.83 1003.68 1715.57 1007.15 1713.67 z"/>
<path transform="translate(0,0)" fill="rgb(255,0,0)" d="M 853.087 1415.52 C 855.392 1414.28 858.187 1414.4 860.384 1415.82 C 862.581 1417.23 863.834 1419.74 863.654 1422.35 C 863.475 1424.96 861.892 1427.26 859.521 1428.37 C 855.994 1430.01 851.798 1428.55 850.056 1425.07 C 848.313 1421.59 849.657 1417.36 853.087 1415.52 z"/>
<path transform="translate(0,0)" fill="rgb(255,0,0)" d="M 505.273 1088.5 C 507.499 1087.32 510.192 1087.44 512.309 1088.81 C 514.426 1090.17 515.636 1092.58 515.471 1095.1 C 515.306 1097.61 513.793 1099.84 511.515 1100.92 C 508.102 1102.54 504.019 1101.14 502.322 1097.77 C 500.626 1094.39 501.936 1090.28 505.273 1088.5 z"/>
<path transform="translate(0,0)" fill="rgb(255,0,0)" d="M 1242.17 1136.55 C 1244.49 1135.63 1247.14 1136.06 1249.06 1137.67 C 1250.97 1139.29 1251.84 1141.82 1251.33 1144.28 C 1250.81 1146.73 1248.98 1148.69 1246.58 1149.39 C 1243.09 1150.41 1239.43 1148.51 1238.25 1145.08 C 1237.07 1141.64 1238.8 1137.89 1242.17 1136.55 z"/>
<path transform="translate(0,0)" fill="rgb(255,0,0)" d="M 873.994 1079.66 C 876.279 1079 878.744 1079.62 880.44 1081.29 C 882.137 1082.95 882.802 1085.41 882.179 1087.7 C 881.557 1090 879.744 1091.78 877.437 1092.36 C 873.954 1093.24 870.409 1091.17 869.469 1087.7 C 868.53 1084.24 870.543 1080.66 873.994 1079.66 z"/>
<path transform="translate(0,0)" fill="rgb(255,0,0)" d="M 1027.29 1751.61 C 1030.27 1750.13 1033.88 1751.28 1035.44 1754.21 C 1037.01 1757.15 1035.95 1760.79 1033.07 1762.43 C 1031.13 1763.54 1028.74 1763.5 1026.84 1762.34 C 1024.93 1761.17 1023.81 1759.07 1023.9 1756.84 C 1024 1754.61 1025.3 1752.61 1027.29 1751.61 z"/>
<path transform="translate(0,0)" fill="rgb(255,0,0)" d="M 889.691 1395.5 C 891.516 1394.75 893.604 1395.06 895.136 1396.3 C 896.668 1397.54 897.401 1399.52 897.048 1401.46 C 896.696 1403.4 895.313 1405 893.442 1405.62 C 890.68 1406.54 887.687 1405.1 886.675 1402.37 C 885.663 1399.64 886.998 1396.6 889.691 1395.5 z"/>
<path transform="translate(0,0)" fill="rgb(255,0,0)" d="M 1222.49 1102.45 C 1225.21 1102.32 1227.55 1104.34 1227.82 1107.05 C 1228.09 1109.75 1226.18 1112.2 1223.49 1112.6 C 1221.63 1112.87 1219.77 1112.1 1218.64 1110.59 C 1217.52 1109.08 1217.32 1107.07 1218.13 1105.37 C 1218.93 1103.67 1220.61 1102.55 1222.49 1102.45 z"/>
<path transform="translate(0,0)" fill="rgb(255,0,0)" d="M 745.326 1086.46 C 747.814 1085.23 750.827 1086.23 752.079 1088.71 C 753.332 1091.19 752.355 1094.21 749.891 1095.49 C 747.394 1096.78 744.321 1095.79 743.052 1093.28 C 741.782 1090.77 742.804 1087.7 745.326 1086.46 z"/>
<path transform="translate(0,0)" fill="rgb(255,0,0)" d="M 479.594 1121.5 C 481.199 1120.74 483.094 1120.9 484.54 1121.94 C 485.986 1122.97 486.754 1124.71 486.546 1126.48 C 486.337 1128.25 485.183 1129.76 483.535 1130.43 C 481.091 1131.42 478.3 1130.29 477.235 1127.88 C 476.169 1125.46 477.214 1122.64 479.594 1121.5 z"/>
<path transform="translate(0,0)" fill="rgb(255,0,0)" d="M 1058.31 1781.56 C 1059.71 1780.68 1061.49 1780.65 1062.92 1781.49 C 1064.34 1782.32 1065.19 1783.89 1065.1 1785.54 C 1065.02 1787.19 1064.02 1788.66 1062.52 1789.35 C 1060.4 1790.32 1057.88 1789.48 1056.77 1787.42 C 1055.66 1785.37 1056.34 1782.81 1058.31 1781.56 z"/>
</svg>